<svg xmlns="http://www.w3.org/2000/svg" viewBox="0 0 2560 1440"><g transform="
          rotate(0 1280 720) 
          translate(-0 -0)
          scale(1)
        "><rect width="2560" height="1440" fill="rgb(102, 179, 255)"></rect><g transform="translate(0, 0)"><path fill="rgb(94, 168, 242)" fill-opacity="1" d="M0,117.648L38.788,116.692C77.576,115.736,155.152,113.824,232.727,113.527C310.303,113.231,387.879,114.55,465.455,114.698C543.03,114.847,620.606,113.824,698.182,101.061C775.758,88.298,853.333,63.794,930.909,61.725C1008.485,59.656,1086.061,80.02,1163.636,73.779C1241.212,67.537,1318.788,34.69,1396.364,32.827C1473.939,30.964,1551.515,60.086,1629.091,67.34C1706.667,74.593,1784.242,59.979,1861.818,46.452C1939.394,32.925,2016.97,20.485,2094.545,26.906C2172.121,33.328,2249.697,58.61,2327.273,63.168C2404.848,67.727,2482.424,51.562,2521.212,43.48L2560,35.397L2560,1440L2521.212,1440C2482.424,1440,2404.848,1440,2327.273,1440C2249.697,1440,2172.121,1440,2094.545,1440C2016.97,1440,1939.394,1440,1861.818,1440C1784.242,1440,1706.667,1440,1629.091,1440C1551.515,1440,1473.939,1440,1396.364,1440C1318.788,1440,1241.212,1440,1163.636,1440C1086.061,1440,1008.485,1440,930.909,1440C853.333,1440,775.758,1440,698.182,1440C620.606,1440,543.03,1440,465.455,1440C387.879,1440,310.303,1440,232.727,1440C155.152,1440,77.576,1440,38.788,1440L0,1440Z"></path></g><g transform="translate(0, 120)"><path fill="rgb(85, 158, 230)" fill-opacity="1" d="M0,35.346L38.788,47.083C77.576,58.819,155.152,82.292,232.727,94.899C310.303,107.506,387.879,109.246,465.455,94.892C543.03,80.537,620.606,50.088,698.182,37.541C775.758,24.994,853.333,30.351,930.909,42.091C1008.485,53.831,1086.061,71.955,1163.636,84.777C1241.212,97.598,1318.788,105.117,1396.364,100.171C1473.939,95.226,1551.515,77.817,1629.091,60.104C1706.667,42.391,1784.242,24.374,1861.818,14.455C1939.394,4.535,2016.97,2.714,2094.545,13.693C2172.121,24.672,2249.697,48.453,2327.273,55.927C2404.848,63.402,2482.424,54.571,2521.212,50.156L2560,45.74L2560,1320L2521.212,1320C2482.424,1320,2404.848,1320,2327.273,1320C2249.697,1320,2172.121,1320,2094.545,1320C2016.97,1320,1939.394,1320,1861.818,1320C1784.242,1320,1706.667,1320,1629.091,1320C1551.515,1320,1473.939,1320,1396.364,1320C1318.788,1320,1241.212,1320,1163.636,1320C1086.061,1320,1008.485,1320,930.909,1320C853.333,1320,775.758,1320,698.182,1320C620.606,1320,543.03,1320,465.455,1320C387.879,1320,310.303,1320,232.727,1320C155.152,1320,77.576,1320,38.788,1320L0,1320Z"></path></g><g transform="translate(0, 240)"><path fill="rgb(77, 147, 217)" fill-opacity="1" d="M0,17.161L38.788,19.322C77.576,21.483,155.152,25.804,232.727,28.869C310.303,31.935,387.879,33.744,465.455,44.352C543.03,54.96,620.606,74.367,698.182,87.583C775.758,100.8,853.333,107.825,930.909,112.039C1008.485,116.254,1086.061,117.656,1163.636,109.541C1241.212,101.426,1318.788,83.794,1396.364,69.765C1473.939,55.736,1551.515,45.311,1629.091,36.212C1706.667,27.113,1784.242,19.341,1861.818,30.824C1939.394,42.308,2016.97,73.048,2094.545,90.722C2172.121,108.396,2249.697,113.004,2327.273,115.472C2404.848,117.939,2482.424,118.266,2521.212,118.429L2560,118.593L2560,1200L2521.212,1200C2482.424,1200,2404.848,1200,2327.273,1200C2249.697,1200,2172.121,1200,2094.545,1200C2016.97,1200,1939.394,1200,1861.818,1200C1784.242,1200,1706.667,1200,1629.091,1200C1551.515,1200,1473.939,1200,1396.364,1200C1318.788,1200,1241.212,1200,1163.636,1200C1086.061,1200,1008.485,1200,930.909,1200C853.333,1200,775.758,1200,698.182,1200C620.606,1200,543.03,1200,465.455,1200C387.879,1200,310.303,1200,232.727,1200C155.152,1200,77.576,1200,38.788,1200L0,1200Z"></path></g><g transform="translate(0, 360)"><path fill="rgb(68, 136, 204)" fill-opacity="1" d="M0,76.58L38.788,74.837C77.576,73.094,155.152,69.608,232.727,62.486C310.303,55.364,387.879,44.606,465.455,53.103C543.03,61.601,620.606,89.355,698.182,100.929C775.758,112.503,853.333,107.897,930.909,106.588C1008.485,105.278,1086.061,107.265,1163.636,104.96C1241.212,102.655,1318.788,96.057,1396.364,79.596C1473.939,63.136,1551.515,36.814,1629.091,39.966C1706.667,43.118,1784.242,75.745,1861.818,83.157C1939.394,90.57,2016.97,72.769,2094.545,57.632C2172.121,42.495,2249.697,30.023,2327.273,29.766C2404.848,29.509,2482.424,41.467,2521.212,47.446L2560,53.425L2560,1080L2521.212,1080C2482.424,1080,2404.848,1080,2327.273,1080C2249.697,1080,2172.121,1080,2094.545,1080C2016.97,1080,1939.394,1080,1861.818,1080C1784.242,1080,1706.667,1080,1629.091,1080C1551.515,1080,1473.939,1080,1396.364,1080C1318.788,1080,1241.212,1080,1163.636,1080C1086.061,1080,1008.485,1080,930.909,1080C853.333,1080,775.758,1080,698.182,1080C620.606,1080,543.03,1080,465.455,1080C387.879,1080,310.303,1080,232.727,1080C155.152,1080,77.576,1080,38.788,1080L0,1080Z"></path></g><g transform="translate(0, 480)"><path fill="rgb(60, 126, 191)" fill-opacity="1" d="M0,117.534L38.788,108.131C77.576,98.728,155.152,79.922,232.727,68.84C310.303,57.758,387.879,54.4,465.455,45.477C543.03,36.553,620.606,22.064,698.182,14.648C775.758,7.232,853.333,6.889,930.909,13.413C1008.485,19.936,1086.061,33.327,1163.636,51.475C1241.212,69.623,1318.788,92.528,1396.364,100.295C1473.939,108.062,1551.515,100.69,1629.091,84.183C1706.667,67.677,1784.242,42.037,1861.818,45.191C1939.394,48.346,2016.97,80.296,2094.545,85.287C2172.121,90.278,2249.697,68.31,2327.273,63.161C2404.848,58.012,2482.424,69.684,2521.212,75.519L2560,81.355L2560,960L2521.212,960C2482.424,960,2404.848,960,2327.273,960C2249.697,960,2172.121,960,2094.545,960C2016.97,960,1939.394,960,1861.818,960C1784.242,960,1706.667,960,1629.091,960C1551.515,960,1473.939,960,1396.364,960C1318.788,960,1241.212,960,1163.636,960C1086.061,960,1008.485,960,930.909,960C853.333,960,775.758,960,698.182,960C620.606,960,543.03,960,465.455,960C387.879,960,310.303,960,232.727,960C155.152,960,77.576,960,38.788,960L0,960Z"></path></g><g transform="translate(0, 600)"><path fill="rgb(51, 115, 179)" fill-opacity="1" d="M0,50.655L38.788,56.974C77.576,63.292,155.152,75.93,232.727,82.077C310.303,88.224,387.879,87.881,465.455,81.985C543.03,76.089,620.606,64.64,698.182,61.336C775.758,58.032,853.333,62.874,930.909,65.241C1008.485,67.607,1086.061,67.499,1163.636,66.321C1241.212,65.144,1318.788,62.897,1396.364,60.926C1473.939,58.954,1551.515,57.258,1629.091,49.186C1706.667,41.115,1784.242,26.668,1861.818,18.042C1939.394,9.415,2016.97,6.608,2094.545,10.616C2172.121,14.624,2249.697,25.447,2327.273,32.251C2404.848,39.055,2482.424,41.84,2521.212,43.233L2560,44.625L2560,840L2521.212,840C2482.424,840,2404.848,840,2327.273,840C2249.697,840,2172.121,840,2094.545,840C2016.97,840,1939.394,840,1861.818,840C1784.242,840,1706.667,840,1629.091,840C1551.515,840,1473.939,840,1396.364,840C1318.788,840,1241.212,840,1163.636,840C1086.061,840,1008.485,840,930.909,840C853.333,840,775.758,840,698.182,840C620.606,840,543.03,840,465.455,840C387.879,840,310.303,840,232.727,840C155.152,840,77.576,840,38.788,840L0,840Z"></path></g><g transform="translate(0, 720)"><path fill="rgb(43, 104, 166)" fill-opacity="1" d="M0,40.057L38.788,44.376C77.576,48.694,155.152,57.331,232.727,63.555C310.303,69.778,387.879,73.589,465.455,79.554C543.03,85.519,620.606,93.639,698.182,92.252C775.758,90.865,853.333,79.972,930.909,68.708C1008.485,57.444,1086.061,45.81,1163.636,46.1C1241.212,46.39,1318.788,58.605,1396.364,56.664C1473.939,54.724,1551.515,38.629,1629.091,42.997C1706.667,47.365,1784.242,72.197,1861.818,77.072C1939.394,81.946,2016.97,66.863,2094.545,70.223C2172.121,73.583,2249.697,95.387,2327.273,104.577C2404.848,113.766,2482.424,110.341,2521.212,108.629L2560,106.916L2560,720L2521.212,720C2482.424,720,2404.848,720,2327.273,720C2249.697,720,2172.121,720,2094.545,720C2016.97,720,1939.394,720,1861.818,720C1784.242,720,1706.667,720,1629.091,720C1551.515,720,1473.939,720,1396.364,720C1318.788,720,1241.212,720,1163.636,720C1086.061,720,1008.485,720,930.909,720C853.333,720,775.758,720,698.182,720C620.606,720,543.03,720,465.455,720C387.879,720,310.303,720,232.727,720C155.152,720,77.576,720,38.788,720L0,720Z"></path></g><g transform="translate(0, 840)"><path fill="rgb(34, 94, 153)" fill-opacity="1" d="M0,59.503L38.788,66.436C77.576,73.368,155.152,87.234,232.727,86.095C310.303,84.956,387.879,68.812,465.455,62.174C543.03,55.536,620.606,58.403,698.182,52.124C775.758,45.845,853.333,30.42,930.909,32.929C1008.485,35.439,1086.061,55.884,1163.636,53.411C1241.212,50.939,1318.788,25.55,1396.364,21.656C1473.939,17.762,1551.515,35.364,1629.091,51.641C1706.667,67.918,1784.242,82.869,1861.818,74.271C1939.394,65.672,2016.97,33.523,2094.545,31.738C2172.121,29.952,2249.697,58.531,2327.273,63.048C2404.848,67.565,2482.424,48.019,2521.212,38.246L2560,28.474L2560,600L2521.212,600C2482.424,600,2404.848,600,2327.273,600C2249.697,600,2172.121,600,2094.545,600C2016.97,600,1939.394,600,1861.818,600C1784.242,600,1706.667,600,1629.091,600C1551.515,600,1473.939,600,1396.364,600C1318.788,600,1241.212,600,1163.636,600C1086.061,600,1008.485,600,930.909,600C853.333,600,775.758,600,698.182,600C620.606,600,543.03,600,465.455,600C387.879,600,310.303,600,232.727,600C155.152,600,77.576,600,38.788,600L0,600Z"></path></g><g transform="translate(0, 960)"><path fill="rgb(26, 83, 140)" fill-opacity="1" d="M0,56.562L38.788,54.662C77.576,52.763,155.152,48.963,232.727,56.164C310.303,63.364,387.879,81.564,465.455,75.63C543.03,69.695,620.606,39.627,698.182,37.773C775.758,35.919,853.333,62.28,930.909,70.895C1008.485,79.509,1086.061,70.378,1163.636,73.668C1241.212,76.958,1318.788,92.67,1396.364,92.887C1473.939,93.105,1551.515,77.829,1629.091,60.646C1706.667,43.463,1784.242,24.373,1861.818,22.884C1939.394,21.394,2016.97,37.504,2094.545,54.131C2172.121,70.757,2249.697,87.901,2327.273,83.05C2404.848,78.199,2482.424,51.355,2521.212,37.932L2560,24.51L2560,480L2521.212,480C2482.424,480,2404.848,480,2327.273,480C2249.697,480,2172.121,480,2094.545,480C2016.97,480,1939.394,480,1861.818,480C1784.242,480,1706.667,480,1629.091,480C1551.515,480,1473.939,480,1396.364,480C1318.788,480,1241.212,480,1163.636,480C1086.061,480,1008.485,480,930.909,480C853.333,480,775.758,480,698.182,480C620.606,480,543.03,480,465.455,480C387.879,480,310.303,480,232.727,480C155.152,480,77.576,480,38.788,480L0,480Z"></path></g><g transform="translate(0, 1080)"><path fill="rgb(17, 72, 128)" fill-opacity="1" d="M0,27.246L38.788,37.658C77.576,48.071,155.152,68.896,232.727,82.664C310.303,96.432,387.879,103.142,465.455,98.01C543.03,92.879,620.606,75.906,698.182,74.645C775.758,73.384,853.333,87.836,930.909,87.422C1008.485,87.008,1086.061,71.729,1163.636,70.591C1241.212,69.454,1318.788,82.458,1396.364,85.574C1473.939,88.689,1551.515,81.915,1629.091,72.581C1706.667,63.247,1784.242,51.353,1861.818,44.494C1939.394,37.635,2016.97,35.81,2094.545,30.182C2172.121,24.553,2249.697,15.122,2327.273,26.582C2404.848,38.042,2482.424,70.394,2521.212,86.57L2560,102.746L2560,360L2521.212,360C2482.424,360,2404.848,360,2327.273,360C2249.697,360,2172.121,360,2094.545,360C2016.97,360,1939.394,360,1861.818,360C1784.242,360,1706.667,360,1629.091,360C1551.515,360,1473.939,360,1396.364,360C1318.788,360,1241.212,360,1163.636,360C1086.061,360,1008.485,360,930.909,360C853.333,360,775.758,360,698.182,360C620.606,360,543.03,360,465.455,360C387.879,360,310.303,360,232.727,360C155.152,360,77.576,360,38.788,360L0,360Z"></path></g><g transform="translate(0, 1200)"><path fill="rgb(8, 62, 115)" fill-opacity="1" d="M0,113.998L38.788,98.263C77.576,82.529,155.152,51.06,232.727,35.067C310.303,19.073,387.879,18.555,465.455,17.215C543.03,15.875,620.606,13.714,698.182,16.81C775.758,19.906,853.333,28.26,930.909,33.309C1008.485,38.358,1086.061,40.102,1163.636,38.489C1241.212,36.876,1318.788,31.907,1396.364,29.032C1473.939,26.157,1551.515,25.376,1629.091,30.435C1706.667,35.494,1784.242,46.394,1861.818,55.455C1939.394,64.516,2016.97,71.739,2094.545,82.005C2172.121,92.272,2249.697,105.583,2327.273,95.628C2404.848,85.672,2482.424,52.45,2521.212,35.839L2560,19.228L2560,240L2521.212,240C2482.424,240,2404.848,240,2327.273,240C2249.697,240,2172.121,240,2094.545,240C2016.97,240,1939.394,240,1861.818,240C1784.242,240,1706.667,240,1629.091,240C1551.515,240,1473.939,240,1396.364,240C1318.788,240,1241.212,240,1163.636,240C1086.061,240,1008.485,240,930.909,240C853.333,240,775.758,240,698.182,240C620.606,240,543.03,240,465.455,240C387.879,240,310.303,240,232.727,240C155.152,240,77.576,240,38.788,240L0,240Z"></path></g><g transform="translate(0, 1320)"><path fill="rgb(0, 51, 102)" fill-opacity="1" d="M0,19.918L38.788,20.396C77.576,20.874,155.152,21.83,232.727,34.708C310.303,47.587,387.879,72.388,465.455,79.813C543.03,87.238,620.606,77.288,698.182,72.621C775.758,67.953,853.333,68.569,930.909,63.633C1008.485,58.696,1086.061,48.207,1163.636,55.805C1241.212,63.404,1318.788,89.089,1396.364,82.85C1473.939,76.61,1551.515,38.445,1629.091,26.723C1706.667,15,1784.242,29.72,1861.818,30.989C1939.394,32.258,2016.97,20.076,2094.545,25.891C2172.121,31.706,2249.697,55.519,2327.273,63.484C2404.848,71.449,2482.424,63.567,2521.212,59.625L2560,55.684L2560,120L2521.212,120C2482.424,120,2404.848,120,2327.273,120C2249.697,120,2172.121,120,2094.545,120C2016.97,120,1939.394,120,1861.818,120C1784.242,120,1706.667,120,1629.091,120C1551.515,120,1473.939,120,1396.364,120C1318.788,120,1241.212,120,1163.636,120C1086.061,120,1008.485,120,930.909,120C853.333,120,775.758,120,698.182,120C620.606,120,543.03,120,465.455,120C387.879,120,310.303,120,232.727,120C155.152,120,77.576,120,38.788,120L0,120Z"></path></g></g></svg>